<?xml version="1.0" encoding="UTF-8" standalone="no"?>
<!DOCTYPE svg PUBLIC "-//W3C//DTD SVG 1.1//EN" "http://www.w3.org/Graphics/SVG/1.1/DTD/svg11.dtd">
<svg width="100%" height="100%" viewBox="0 0 951 326" version="1.1" xmlns="http://www.w3.org/2000/svg" xmlns:xlink="http://www.w3.org/1999/xlink" xml:space="preserve" xmlns:serif="http://www.serif.com/" style="fill-rule:evenodd;clip-rule:evenodd;stroke-linejoin:round;stroke-miterlimit:2;">
    <g transform="matrix(1,0,0,1,-144.162487,-509.906117)">
        <path d="M404.001,774.027C394.542,774.027 385.758,772.394 377.649,769.128C369.541,765.863 362.475,761.273 356.45,755.361C350.425,749.449 345.723,742.551 342.345,734.668C338.966,726.785 337.277,718.227 337.277,708.992C337.277,699.758 338.938,691.199 342.26,683.316C345.582,675.433 350.256,668.564 356.281,662.708C362.306,656.852 369.372,652.291 377.481,649.025C385.589,645.759 394.429,644.126 404.001,644.126C413.573,644.126 422.414,645.759 430.522,649.025C438.63,652.291 445.697,656.852 451.722,662.708C457.746,668.564 462.42,675.433 465.742,683.316C469.064,691.199 470.725,699.758 470.725,708.992C470.725,718.227 469.036,726.785 465.658,734.668C462.279,742.551 457.577,749.449 451.553,755.361C445.528,761.273 438.461,765.863 430.353,769.128C422.245,772.394 413.461,774.027 404.001,774.027ZM404.001,750.378C409.745,750.378 415.066,749.365 419.964,747.337C424.863,745.31 429.171,742.467 432.887,738.807C436.603,735.147 439.475,730.783 441.502,725.715C443.529,720.648 444.542,715.073 444.542,708.992C444.542,702.911 443.529,697.365 441.502,692.353C439.475,687.342 436.603,682.978 432.887,679.262C429.171,675.546 424.863,672.702 419.964,670.731C415.066,668.761 409.745,667.775 404.001,667.775C398.258,667.775 392.937,668.761 388.038,670.731C383.139,672.702 378.832,675.546 375.116,679.262C371.399,682.978 368.528,687.342 366.501,692.353C364.474,697.365 363.46,702.911 363.46,708.992C363.46,715.073 364.474,720.648 366.501,725.715C368.528,730.783 371.399,735.147 375.116,738.807C378.832,742.467 383.139,745.31 388.038,747.337C392.937,749.365 398.258,750.378 404.001,750.378Z" style="fill:white;fill-rule:nonzero;"/>
        <path d="M490.996,772L490.996,646.153L511.097,646.153L578.666,735.175L567.855,737.709L567.855,646.153L594.038,646.153L594.038,772L573.767,772L507.381,682.303L517.179,679.769L517.179,772L490.996,772Z" style="fill:white;fill-rule:nonzero;"/>
        <path d="M618.025,772L618.025,646.153L702.655,646.153L702.655,668.958L644.208,668.958L644.208,697.506L699.276,697.506L699.276,720.31L644.208,720.31L644.208,749.196L702.655,749.196L702.655,772L618.025,772Z" style="fill:white;fill-rule:nonzero;"/>
        <path d="M809.413,774.027C800.404,774.027 792.042,772.394 784.328,769.128C776.614,765.863 769.885,761.302 764.142,755.446C758.399,749.59 753.922,742.72 750.713,734.837C747.503,726.954 745.899,718.339 745.899,708.992C745.899,699.645 747.475,691.002 750.628,683.063C753.782,675.123 758.23,668.254 763.973,662.454C769.716,656.655 776.445,652.15 784.159,648.941C791.873,645.731 800.291,644.126 809.413,644.126C818.535,644.126 826.728,645.647 833.991,648.687C841.255,651.728 847.42,655.782 852.488,660.85C857.556,665.917 861.159,671.548 863.299,677.742L840.157,688.891C838.017,682.809 834.273,677.77 828.924,673.772C823.574,669.774 817.071,667.775 809.413,667.775C801.981,667.775 795.449,669.521 789.818,673.012C784.187,676.503 779.824,681.317 776.727,687.455C773.63,693.592 772.081,700.771 772.081,708.992C772.081,717.213 773.63,724.42 776.727,730.614C779.824,736.808 784.187,741.65 789.818,745.141C795.449,748.633 801.981,750.378 809.413,750.378C817.071,750.378 823.574,748.379 828.924,744.381C834.273,740.384 838.017,735.344 840.157,729.263L863.299,740.412C861.159,746.605 857.556,752.236 852.488,757.304C847.42,762.371 841.255,766.426 833.991,769.466C826.728,772.507 818.535,774.027 809.413,774.027Z" style="fill:white;fill-rule:nonzero;"/>
        <path d="M881.712,772L881.712,646.153L929.854,646.153C938.525,646.153 946.211,647.674 952.912,650.714C959.613,653.755 964.877,658.259 968.706,664.228C972.535,670.197 974.449,677.573 974.449,686.357C974.449,694.915 972.479,702.207 968.537,708.232C964.596,714.257 959.303,718.79 952.659,721.83L981.375,772L951.983,772L920.901,716.425L937.793,726.391L907.894,726.391L907.894,772L881.712,772ZM907.894,703.587L930.023,703.587C933.739,703.587 936.949,702.855 939.652,701.391C942.354,699.927 944.466,697.9 945.986,695.31C947.506,692.719 948.267,689.735 948.267,686.357C948.267,682.866 947.506,679.825 945.986,677.235C944.466,674.645 942.354,672.618 939.652,671.154C936.949,669.69 933.739,668.958 930.023,668.958L907.894,668.958L907.894,703.587Z" style="fill:white;fill-rule:nonzero;"/>
        <path d="M1026.984,772L1026.984,717.1L985.092,646.153L1014.991,646.153L1045.397,699.533L1034.754,699.533L1064.991,646.153L1094.891,646.153L1053.167,716.932L1053.167,772L1026.984,772Z" style="fill:white;fill-rule:nonzero;"/>
    </g>
    <g transform="matrix(0.377512,0,0,0.377512,296.433255,33.05083)">
        <path d="M344.71,772L344.71,646.153L387.954,646.153C396.174,646.153 403.382,647.758 409.576,650.968C415.769,654.177 420.584,658.682 424.018,664.481C427.453,670.281 429.171,677.01 429.171,684.668C429.171,692.325 427.453,699.026 424.018,704.769C420.584,710.513 415.798,714.989 409.66,718.198C403.523,721.408 396.287,723.013 387.954,723.013L358.223,723.013L358.223,772L344.71,772ZM358.223,710.344L388.629,710.344C394.035,710.344 398.765,709.302 402.819,707.219C406.873,705.135 410.026,702.151 412.278,698.266C414.531,694.381 415.657,689.791 415.657,684.499C415.657,679.206 414.531,674.645 412.278,670.816C410.026,666.987 406.873,664.031 402.819,661.948C398.765,659.864 394.035,658.823 388.629,658.823L358.223,658.823L358.223,710.344Z" style="fill:rgb(116,205,216);fill-rule:nonzero;"/>
        <path d="M488.8,772L488.8,646.153L569.882,646.153L569.882,658.823L502.314,658.823L502.314,702.573L566.504,702.573L566.504,715.242L502.314,715.242L502.314,759.331L569.882,759.331L569.882,772L488.8,772Z" style="fill:rgb(116,205,216);fill-rule:nonzero;"/>
        <path d="M627.653,772L627.653,646.153L639.478,646.153L713.297,752.067L708.736,752.067L708.736,646.153L722.25,646.153L722.25,772L710.425,772L636.606,665.41L641.167,665.41L641.167,772L627.653,772Z" style="fill:rgb(116,205,216);fill-rule:nonzero;"/>
        <path d="M829.853,774.027C821.857,774.027 814.593,772.507 808.062,769.466C801.53,766.426 796.012,762.343 791.507,757.219C787.003,752.095 783.793,746.437 781.879,740.243L794.041,735.682C796.969,744.241 801.53,750.744 807.724,755.192C813.918,759.641 821.294,761.865 829.853,761.865C835.258,761.865 840.016,760.992 844.126,759.246C848.237,757.501 851.418,755.052 853.671,751.898C855.923,748.745 857.049,745.085 857.049,740.918C857.049,734.725 855.36,729.939 851.981,726.56C848.603,723.182 843.76,720.592 837.454,718.79L814.819,712.033C805.922,709.443 799.081,705.107 794.295,699.026C789.508,692.945 787.115,686.019 787.115,678.249C787.115,671.604 788.748,665.72 792.014,660.596C795.28,655.472 799.756,651.446 805.443,648.518C811.13,645.59 817.578,644.126 824.785,644.126C832.33,644.126 839.115,645.506 845.14,648.265C851.165,651.024 856.261,654.656 860.427,659.16C864.594,663.665 867.578,668.676 869.38,674.194L857.556,678.924C854.853,671.492 850.658,665.861 844.971,662.032C839.284,658.203 832.612,656.289 824.954,656.289C820.111,656.289 815.86,657.133 812.2,658.823C808.54,660.512 805.697,662.933 803.67,666.086C801.643,669.239 800.629,672.956 800.629,677.235C800.629,682.415 802.262,687.061 805.528,691.171C808.794,695.281 813.805,698.35 820.562,700.377L840.495,706.289C850.405,709.217 857.894,713.441 862.961,718.959C868.029,724.477 870.563,731.403 870.563,739.736C870.563,746.493 868.845,752.433 865.411,757.557C861.976,762.681 857.19,766.707 851.052,769.635C844.915,772.563 837.848,774.027 829.853,774.027Z" style="fill:rgb(116,205,216);fill-rule:nonzero;"/>
        <path d="M919.043,772L964.99,646.153L979.517,646.153L1025.464,772L1011.274,772L1000.463,741.256L944.212,741.256L933.233,772L919.043,772ZM948.604,728.587L995.734,728.587L970.226,656.289L974.281,656.289L948.604,728.587Z" style="fill:rgb(116,205,216);fill-rule:nonzero;"/>
        <path d="M1130.026,774.027C1121.13,774.027 1112.965,772.422 1105.533,769.213C1098.1,766.003 1091.653,761.499 1086.191,755.699C1080.729,749.899 1076.478,743.058 1073.438,735.175C1070.397,727.292 1068.877,718.621 1068.877,709.161C1068.877,699.702 1070.397,691.03 1073.438,683.147C1076.478,675.264 1080.729,668.395 1086.191,662.539C1091.653,656.683 1098.1,652.15 1105.533,648.941C1112.965,645.731 1121.13,644.126 1130.026,644.126C1138.585,644.126 1146.271,645.647 1153.084,648.687C1159.897,651.728 1165.641,655.641 1170.314,660.427C1174.988,665.213 1178.338,670.253 1180.365,675.546L1167.696,681.12C1164.543,673.8 1159.728,667.916 1153.253,663.468C1146.778,659.02 1139.035,656.795 1130.026,656.795C1120.792,656.795 1112.571,658.991 1105.364,663.383C1098.156,667.775 1092.526,673.885 1088.472,681.711C1084.417,689.538 1082.39,698.688 1082.39,709.161C1082.39,719.522 1084.417,728.643 1088.472,736.526C1092.526,744.409 1098.156,750.519 1105.364,754.854C1112.571,759.19 1120.792,761.358 1130.026,761.358C1139.035,761.358 1146.778,759.162 1153.253,754.77C1159.728,750.378 1164.543,744.522 1167.696,737.202L1180.365,742.777C1178.338,747.957 1174.988,752.94 1170.314,757.726C1165.641,762.512 1159.897,766.426 1153.084,769.466C1146.271,772.507 1138.585,774.027 1130.026,774.027Z" style="fill:rgb(116,205,216);fill-rule:nonzero;"/>
        <path d="M1299.286,774.027C1290.502,774.027 1282.309,772.422 1274.708,769.213C1267.106,766.003 1260.434,761.499 1254.69,755.699C1248.947,749.899 1244.443,743.03 1241.177,735.091C1237.911,727.151 1236.278,718.452 1236.278,708.992C1236.278,699.533 1237.911,690.833 1241.177,682.894C1244.443,674.955 1248.947,668.085 1254.69,662.285C1260.434,656.486 1267.106,652.009 1274.708,648.856C1282.309,645.703 1290.502,644.126 1299.286,644.126C1308.07,644.126 1316.262,645.731 1323.864,648.941C1331.465,652.15 1338.138,656.655 1343.881,662.454C1349.624,668.254 1354.129,675.095 1357.395,682.978C1360.661,690.861 1362.293,699.533 1362.293,708.992C1362.293,718.452 1360.661,727.151 1357.395,735.091C1354.129,743.03 1349.624,749.899 1343.881,755.699C1338.138,761.499 1331.465,766.003 1323.864,769.213C1316.262,772.422 1308.07,774.027 1299.286,774.027ZM1299.286,761.358C1306.606,761.358 1313.278,760.007 1319.303,757.304C1325.328,754.601 1330.536,750.828 1334.928,745.986C1339.32,741.144 1342.727,735.569 1345.148,729.263C1347.569,722.956 1348.78,716.2 1348.78,708.992C1348.78,701.898 1347.569,695.197 1345.148,688.891C1342.727,682.584 1339.32,677.01 1334.928,672.167C1330.536,667.325 1325.328,663.552 1319.303,660.85C1313.278,658.147 1306.606,656.795 1299.286,656.795C1291.966,656.795 1285.293,658.147 1279.269,660.85C1273.244,663.552 1268.035,667.325 1263.643,672.167C1259.251,677.01 1255.845,682.584 1253.424,688.891C1251.002,695.197 1249.792,701.898 1249.792,708.992C1249.792,716.2 1251.002,722.956 1253.424,729.263C1255.845,735.569 1259.251,741.144 1263.643,745.986C1268.035,750.828 1273.272,754.601 1279.353,757.304C1285.434,760.007 1292.078,761.358 1299.286,761.358Z" style="fill:rgb(116,205,216);fill-rule:nonzero;"/>
        <path d="M1423.781,772L1423.781,646.153L1437.295,646.153L1437.295,759.331L1493.039,759.331L1493.039,772L1423.781,772Z" style="fill:rgb(116,205,216);fill-rule:nonzero;"/>
        <path d="M1535.945,772L1581.892,646.153L1596.419,646.153L1642.366,772L1628.176,772L1617.365,741.256L1561.114,741.256L1550.134,772L1535.945,772ZM1565.506,728.587L1612.635,728.587L1587.128,656.289L1591.182,656.289L1565.506,728.587Z" style="fill:rgb(116,205,216);fill-rule:nonzero;"/>
    </g>
    <g transform="matrix(0.768476,0,0,0.768476,-857.210237,-423.60046)">
        <g transform="matrix(0.448882,0,0,0.448882,345.874355,396.706705)">
            <path d="M2032.589,772.854C2032.404,770.673 2032.202,768.391 2031.983,765.994C2025.151,691.095 2016.391,677.482 2013.911,633.686C2010.637,575.859 2015.187,562.007 2023.19,557.051C2039.977,546.654 2048.446,571.462 2052.318,584.609C2069.782,643.918 2070.744,643.563 2094.084,695.082C2104.669,718.447 2098.216,762.917 2124.804,814.026C2134.677,833.004 2135.367,833.578 2137.017,832.868C2138.009,832.441 2137.378,832.045 2135.984,826.429C2126.79,789.395 2121.387,780.524 2115.447,733.139C2110.867,696.607 2111.603,696.139 2097.344,666.267C2076.473,622.542 2070.698,576.882 2050.306,549.91C2038.646,534.486 2025.756,535.009 2016.333,482.873C2007.372,433.293 2017.852,424.235 2021.612,420.987C2040.168,404.951 2050.075,429.645 2056.806,444.022C2072.129,476.749 2118.095,549.607 2125.39,559.98C2146.306,589.721 2138.488,593.096 2158.297,664.477C2170.21,707.407 2195.948,747.346 2196.339,747.381C2199.096,747.627 2197.912,745.417 2185.427,714.544C2151.047,629.526 2158.561,591.263 2135.245,556.482C2115.73,527.37 2115.968,527.308 2097.383,497.623C2054.379,428.936 2050.945,402.754 2034.279,401.111C2021.458,399.847 2015.433,414.82 2014.003,404.998C2009.613,374.85 2012.008,346.8 2040.448,344.221C2050.074,344.902 2056.963,347.982 2067.371,374.165C2073.645,389.948 2071.723,391.076 2126.044,478.567C2153.481,522.756 2154.679,521.902 2165.051,537.634C2186.988,570.911 2176.305,622.31 2216.531,700.485C2234.56,735.522 2232.894,738.994 2229.892,813.125C2224.653,942.459 2221.408,962.82 2226.442,992.513C2234.806,1041.848 2293.02,1088.971 2297.425,1097.372C2299.408,1101.154 2252.578,1179.874 2142.921,1195.106C2142.459,1195.17 2142.038,1195.209 2141.647,1195.217C1997.664,1207.74 1873.196,1194.457 1873.196,1194.457C1870.918,1196.494 1851.832,1192.096 1846.759,1191.041C1797.631,1177.868 1766.674,1161.203 1733.244,1125.513C1727.702,1119.597 1715.075,1101.94 1714.495,1099.191C1712.98,1092.015 1775.557,1046.917 1785.777,991.497C1792.821,953.301 1778.584,808.876 1780.274,749.571C1781.396,710.21 1802.499,700.472 1818.502,642.792C1838.315,571.379 1826.805,566.577 1851.182,531.455C1890.745,474.451 1892.356,466.053 1910.572,438.063C1943.184,387.952 1941.974,374.2 1952.663,356.059C1964.893,335.304 1990.194,345.023 1996.565,364.98C2000.786,378.198 1996.968,408.149 1995.412,408.354C1994.138,408.521 1976.375,393.717 1963.994,409.487C1960.001,414.573 1926.758,483.449 1884.021,545.824C1867.861,569.411 1866.316,569.284 1854.531,622.341C1837.526,698.898 1816.226,735.3 1814.038,746.479C1813.831,747.534 1815.33,748.436 1816.61,746.242C1841.685,703.282 1852.675,675.387 1867.845,604.909C1875.445,569.599 1880.409,571.565 1897.413,544.166C1923.641,501.905 1937.133,477.809 1940.419,471.941C1965.541,427.075 1966.654,408.79 1985.938,418.671C1990.073,420.79 2003.648,427.746 1996.432,475.794C1987.847,532.955 1973.405,535.849 1965.01,545.897C1938.612,577.49 1940.789,611.817 1911.011,673.566C1895.605,705.511 1900.891,707.593 1892.792,757.766C1887.47,790.733 1867.967,845.484 1876.685,831.928C1895.851,802.13 1904.473,774.692 1909.767,736.176C1913.328,710.27 1910.464,709.209 1927.064,674.919C1954.589,618.058 1955.618,584.599 1967.945,564.153C1975.389,551.806 1995.993,547.264 1998.352,583.454C2001.914,638.103 1987.97,701.774 1986.744,709.513C1985.026,720.358 1983.591,730.266 1982.408,739.371L1983.164,739.219L1987.94,739.776C1990.14,740.365 1993.623,741.945 1998.442,745.269C2011.955,754.592 2023.216,763.795 2032.589,772.854Z" style="fill:rgb(116,205,216);"/>
        </g>
        <g transform="matrix(1.574698,0,0,1.574698,438.993125,383.929496)">
            <path d="M469.751,308.467C466.997,275.983 492.94,269.731 504.878,244.673C511.657,230.443 501.582,218.847 508.452,223.586C545.987,249.482 518.905,270.918 531.739,287.309C536.372,293.225 542.164,277.059 541.065,267.342C540.721,264.302 542.465,265.682 542.726,266.112C552.923,282.908 561.124,296.985 552.048,317.279C545.978,330.849 527.15,338.59 529.062,333.433C533.473,321.534 522.646,313.812 517.599,309.385C500.054,293.998 509.8,286.234 507.546,283.472C506.832,282.597 505.665,282.403 497.884,293.762C496.124,296.331 483.546,314.692 495.292,332.599C495.409,332.778 497.456,335.898 494.521,335.152C473.643,329.847 470.272,311.332 469.751,308.467Z" style="fill:white;"/>
        </g>
    </g>
</svg>
