<?xml version="1.0" encoding="UTF-8" standalone="no"?>
<!DOCTYPE svg PUBLIC "-//W3C//DTD SVG 1.1//EN" "http://www.w3.org/Graphics/SVG/1.1/DTD/svg11.dtd">
<svg width="100%" height="100%" viewBox="0 0 202 296" version="1.1" xmlns="http://www.w3.org/2000/svg" xmlns:xlink="http://www.w3.org/1999/xlink" xml:space="preserve" xmlns:serif="http://www.serif.com/" style="fill-rule:evenodd;clip-rule:evenodd;stroke-linejoin:round;stroke-miterlimit:2;">
    <g transform="matrix(0.768476,0,0,0.768476,-857.210237,-423.60046)">
        <g transform="matrix(0.448882,0,0,0.448882,345.874355,396.706705)">
            <path d="M2032.589,772.854C2032.404,770.673 2032.202,768.391 2031.983,765.994C2025.151,691.095 2016.391,677.482 2013.911,633.686C2010.637,575.859 2015.187,562.007 2023.19,557.051C2039.977,546.654 2048.446,571.462 2052.318,584.609C2069.782,643.918 2070.744,643.563 2094.084,695.082C2104.669,718.447 2098.216,762.917 2124.804,814.026C2134.677,833.004 2135.367,833.578 2137.017,832.868C2138.009,832.441 2137.378,832.045 2135.984,826.429C2126.79,789.395 2121.387,780.524 2115.447,733.139C2110.867,696.607 2111.603,696.139 2097.344,666.267C2076.473,622.542 2070.698,576.882 2050.306,549.91C2038.646,534.486 2025.756,535.009 2016.333,482.873C2007.372,433.293 2017.852,424.235 2021.612,420.987C2040.168,404.951 2050.075,429.645 2056.806,444.022C2072.129,476.749 2118.095,549.607 2125.39,559.98C2146.306,589.721 2138.488,593.096 2158.297,664.477C2170.21,707.407 2195.948,747.346 2196.339,747.381C2199.096,747.627 2197.912,745.417 2185.427,714.544C2151.047,629.526 2158.561,591.263 2135.245,556.482C2115.73,527.37 2115.968,527.308 2097.383,497.623C2054.379,428.936 2050.945,402.754 2034.279,401.111C2021.458,399.847 2015.433,414.82 2014.003,404.998C2009.613,374.85 2012.008,346.8 2040.448,344.221C2050.074,344.902 2056.963,347.982 2067.371,374.165C2073.645,389.948 2071.723,391.076 2126.044,478.567C2153.481,522.756 2154.679,521.902 2165.051,537.634C2186.988,570.911 2176.305,622.31 2216.531,700.485C2234.56,735.522 2232.894,738.994 2229.892,813.125C2224.653,942.459 2221.408,962.82 2226.442,992.513C2234.806,1041.848 2293.02,1088.971 2297.425,1097.372C2299.408,1101.154 2252.578,1179.874 2142.921,1195.106C2142.459,1195.17 2142.038,1195.209 2141.647,1195.217C1997.664,1207.74 1873.196,1194.457 1873.196,1194.457C1870.918,1196.494 1851.832,1192.096 1846.759,1191.041C1797.631,1177.868 1766.674,1161.203 1733.244,1125.513C1727.702,1119.597 1715.075,1101.94 1714.495,1099.191C1712.98,1092.015 1775.557,1046.917 1785.777,991.497C1792.821,953.301 1778.584,808.876 1780.274,749.571C1781.396,710.21 1802.499,700.472 1818.502,642.792C1838.315,571.379 1826.805,566.577 1851.182,531.455C1890.745,474.451 1892.356,466.053 1910.572,438.063C1943.184,387.952 1941.974,374.2 1952.663,356.059C1964.893,335.304 1990.194,345.023 1996.565,364.98C2000.786,378.198 1996.968,408.149 1995.412,408.354C1994.138,408.521 1976.375,393.717 1963.994,409.487C1960.001,414.573 1926.758,483.449 1884.021,545.824C1867.861,569.411 1866.316,569.284 1854.531,622.341C1837.526,698.898 1816.226,735.3 1814.038,746.479C1813.831,747.534 1815.33,748.436 1816.61,746.242C1841.685,703.282 1852.675,675.387 1867.845,604.909C1875.445,569.599 1880.409,571.565 1897.413,544.166C1923.641,501.905 1937.133,477.809 1940.419,471.941C1965.541,427.075 1966.654,408.79 1985.938,418.671C1990.073,420.79 2003.648,427.746 1996.432,475.794C1987.847,532.955 1973.405,535.849 1965.01,545.897C1938.612,577.49 1940.789,611.817 1911.011,673.566C1895.605,705.511 1900.891,707.593 1892.792,757.766C1887.47,790.733 1867.967,845.484 1876.685,831.928C1895.851,802.13 1904.473,774.692 1909.767,736.176C1913.328,710.27 1910.464,709.209 1927.064,674.919C1954.589,618.058 1955.618,584.599 1967.945,564.153C1975.389,551.806 1995.993,547.264 1998.352,583.454C2001.914,638.103 1987.97,701.774 1986.744,709.513C1985.026,720.358 1983.591,730.266 1982.408,739.371L1983.164,739.219L1987.94,739.776C1990.14,740.365 1993.623,741.945 1998.442,745.269C2011.955,754.592 2023.216,763.795 2032.589,772.854Z" style="fill:rgb(116,205,216);"/>
        </g>
        <g transform="matrix(1.574698,0,0,1.574698,438.993125,383.929496)">
            <path d="M469.751,308.467C466.997,275.983 492.94,269.731 504.878,244.673C511.657,230.443 501.582,218.847 508.452,223.586C545.987,249.482 518.905,270.918 531.739,287.309C536.372,293.225 542.164,277.059 541.065,267.342C540.721,264.302 542.465,265.682 542.726,266.112C552.923,282.908 561.124,296.985 552.048,317.279C545.978,330.849 527.15,338.59 529.062,333.433C533.473,321.534 522.646,313.812 517.599,309.385C500.054,293.998 509.8,286.234 507.546,283.472C506.832,282.597 505.665,282.403 497.884,293.762C496.124,296.331 483.546,314.692 495.292,332.599C495.409,332.778 497.456,335.898 494.521,335.152C473.643,329.847 470.272,311.332 469.751,308.467Z" style="fill:white;"/>
        </g>
    </g>
</svg>
